<?xml version="1.0" standalone="no"?>
<!DOCTYPE svg PUBLIC "-//W3C//DTD SVG 20010904//EN"
 "http://www.w3.org/TR/2001/REC-SVG-20010904/DTD/svg10.dtd">
<svg version="1.0" xmlns="http://www.w3.org/2000/svg"
 width="284.000000pt" height="284.000000pt" viewBox="0 0 284.000000 284.000000"
 preserveAspectRatio="xMidYMid meet">
<metadata>
Created by potrace 1.11, written by Peter Selinger 2001-2013
</metadata>
<g transform="translate(0.000000,284.000000) scale(0.100000,-0.100000)"
fill="#000000" stroke="none">
<path d="M0 1420 l0 -1420 1420 0 1420 0 0 1420 0 1420 -1420 0 -1420 0 0
-1420z m1433 385 c124 -32 228 -107 262 -187 20 -50 19 -80 -6 -133 -41 -88
-148 -143 -295 -152 l-82 -6 -32 104 c-17 57 -50 164 -73 237 -35 113 -39 135
-26 143 22 14 189 10 252 -6z m-30 -658 c55 -9 75 -8 128 7 l63 17 163 -163
163 -163 -162 -7 -163 -7 -93 94 c-52 52 -97 95 -100 95 -4 0 -52 -45 -107
-100 l-100 -100 -170 0 -170 0 194 194 194 194 47 -25 c26 -13 77 -29 113 -36z
m-541 -629 c41 -21 61 -108 37 -161 -25 -56 -123 -74 -169 -32 -31 28 -44 81
-31 124 23 77 91 106 163 69z m1349 12 c12 0 49 -37 49 -50 0 -16 -18 -12 -40
10 -11 11 -31 20 -44 20 -30 0 -57 -25 -50 -45 5 -13 61 -35 90 -35 18 0 54
-40 54 -61 0 -34 -44 -69 -88 -69 -45 0 -92 31 -92 61 0 26 23 24 35 -3 13
-30 84 -38 105 -13 20 24 3 46 -45 60 -67 20 -85 33 -85 64 0 41 48 76 88 65
8 -2 18 -4 23 -4z m-1711 -45 l0 -45 60 0 60 0 0 45 c0 33 4 45 15 45 12 0 15
-19 15 -115 0 -96 -3 -115 -15 -115 -12 0 -15 13 -15 55 l0 55 -60 0 -60 0 0
-56 c0 -40 -3 -55 -12 -52 -9 3 -14 38 -16 116 -2 95 0 112 13 112 11 0 15
-11 15 -45z m614 30 c-4 -9 -19 -15 -40 -15 l-34 0 0 -100 c0 -82 -3 -100 -15
-100 -12 0 -15 18 -15 99 l0 100 -37 3 c-20 2 -38 9 -41 16 -3 9 20 12 92 12
81 0 94 -2 90 -15z m256 -5 c23 -23 26 -53 6 -69 -13 -11 -12 -15 5 -32 10
-10 19 -30 19 -42 0 -40 -34 -61 -106 -65 l-64 -4 0 116 0 116 60 0 c47 0 64
-4 80 -20z m238 8 c-3 -8 -29 -14 -72 -16 l-67 -3 3 -32 c3 -32 3 -32 66 -35
82 -4 80 -22 -3 -22 l-65 0 0 -40 0 -40 70 0 c56 0 70 -3 70 -15 0 -12 -16
-15 -85 -15 l-85 0 0 115 0 115 86 0 c64 0 85 -3 82 -12z m182 -85 c53 -126
54 -133 36 -133 -9 0 -22 16 -30 35 -14 33 -17 35 -65 35 -47 0 -50 -1 -56
-31 -6 -27 -29 -48 -40 -37 -2 2 15 55 38 116 53 142 63 144 117 15z m167 10
l58 -88 3 88 c2 69 6 87 18 87 12 0 14 -18 12 -112 -2 -93 -6 -113 -18 -113
-8 0 -41 38 -72 84 l-57 84 -3 -83 c-2 -56 -7 -85 -15 -88 -10 -3 -13 24 -13
112 0 146 9 148 87 29z"/>
<path d="M1361 1673 c-60 -31 -59 -39 5 -156 63 -114 73 -121 124 -91 38 23
60 64 60 114 0 108 -101 179 -189 133z m105 -9 c37 -18 74 -76 74 -117 0 -45
-22 -86 -57 -108 -43 -27 -42 -27 -111 95 -56 98 -56 107 3 132 40 17 51 17
91 -2z"/>
<path d="M755 487 c-22 -18 -27 -31 -27 -71 -1 -40 3 -53 21 -68 23 -18 77
-24 97 -10 40 27 46 111 9 147 -30 31 -66 32 -100 2z"/>
<path d="M1262 468 c3 -30 6 -33 36 -32 49 3 64 11 60 36 -3 20 -10 23 -51 26
l-48 3 3 -33z"/>
<path d="M1260 370 l0 -40 43 0 c46 0 67 13 67 42 0 23 -30 38 -74 38 -35 0
-36 -1 -36 -40z"/>
<path d="M1716 455 c-9 -27 -16 -50 -16 -52 0 -2 16 -3 35 -3 19 0 35 1 35 3
0 1 -8 24 -19 51 l-18 49 -17 -48z"/>
</g>
</svg>
